<svg width="56" height="17" viewBox="0 0 56 17" fill="none" xmlns="http://www.w3.org/2000/svg">
<path d="M7.05039 16.7474C5.82109 16.7474 4.67133 16.4871 3.60112 15.9664C2.54537 15.4313 1.68486 14.6793 1.01959 13.7103C0.368789 12.7268 0.0289247 11.606 0 10.3478H4.25193C4.30977 10.8684 4.47609 11.3312 4.75088 11.7362C5.04012 12.1267 5.40891 12.4376 5.85724 12.669C6.30558 12.8859 6.80453 12.9944 7.35409 12.9944C7.68673 12.9944 7.99767 12.9366 8.28691 12.8209C8.59062 12.7052 8.83648 12.5461 9.02449 12.3436C9.2125 12.1411 9.30651 11.917 9.30651 11.6711C9.30651 11.2806 9.17635 10.9769 8.91603 10.76C8.6557 10.5286 8.32307 10.3623 7.91813 10.261C7.51318 10.1598 6.94915 10.0513 6.22603 9.93562C5.05458 9.74761 4.09284 9.52344 3.3408 9.26312C2.60322 9.0028 1.95965 8.53277 1.41008 7.85304C0.874971 7.17331 0.607418 6.19711 0.607418 4.92442C0.607418 3.98437 0.882202 3.13833 1.43177 2.38628C1.98134 1.63424 2.74061 1.04852 3.70959 0.629112C4.69303 0.209704 5.79216 0 7.007 0C8.20737 0 9.30651 0.253091 10.3044 0.759273C11.3023 1.25099 12.1122 1.92349 12.7341 2.77677C13.3704 3.61558 13.7392 4.54117 13.8405 5.55353H9.43667C9.36436 5.19198 9.19804 4.86657 8.93772 4.57733C8.69186 4.28808 8.35923 4.05668 7.93982 3.88314C7.53487 3.70959 7.07931 3.62281 6.57313 3.62281C6.05248 3.62281 5.62585 3.72405 5.29321 3.92652C4.97504 4.11453 4.81596 4.36762 4.81596 4.68579C4.81596 4.97504 4.93165 5.20644 5.16305 5.37999C5.39445 5.55353 5.69093 5.6837 6.05248 5.77047C6.41404 5.85724 6.91299 5.94402 7.54934 6.03079C8.74971 6.2188 9.74761 6.4502 10.543 6.72498C11.3385 6.98531 12.0327 7.48425 12.6256 8.22183C13.2186 8.94495 13.515 9.99347 13.515 11.3674C13.515 12.4231 13.2403 13.3632 12.6907 14.1875C12.1556 14.9974 11.3963 15.6265 10.4129 16.0749C9.4439 16.5232 8.32307 16.7474 7.05039 16.7474Z" fill="black"/>
<path d="M20.5188 16.4871C19.3908 16.4871 18.3929 16.234 17.5251 15.7278C16.6718 15.2071 16.0066 14.484 15.5293 13.5584C15.0521 12.6328 14.8134 11.5699 14.8134 10.3695V0.260322H18.9352V10.3695C18.9352 10.8612 19.0364 11.2951 19.2389 11.6711C19.4558 12.0471 19.7523 12.3364 20.1283 12.5388C20.5044 12.7413 20.9238 12.8425 21.3866 12.8425H21.7337C22.4568 12.8425 23.0497 12.6184 23.5125 12.17C23.9753 11.7217 24.2067 11.1215 24.2067 10.3695V0.260322H28.3285V10.3695C28.3285 11.5699 28.0899 12.6328 27.6126 13.5584C27.1353 14.484 26.4628 15.2071 25.5951 15.7278C24.7274 16.234 23.7295 16.4871 22.6014 16.4871H20.5188Z" fill="black"/>
<path d="M40.4638 8.24353C40.9989 8.48939 41.4545 8.7931 41.8305 9.15465C42.2065 9.51621 42.4957 9.92116 42.6982 10.3695C42.9007 10.8034 43.0019 11.2734 43.0019 11.7796V16.4871H38.8802V12.8425C38.8802 12.2207 38.6922 11.7 38.3161 11.2806C37.9401 10.8467 37.4556 10.6298 36.8627 10.6298H34.3028V16.4871H30.1811V0.260322H36.7759C38.0486 0.260322 39.1477 0.470026 40.0733 0.889433C41.0134 1.30884 41.7365 1.90903 42.2427 2.68999C42.7488 3.47096 43.0019 4.38932 43.0019 5.44507C43.0019 6.06695 42.9079 6.64544 42.7199 7.18055C42.5319 7.71565 42.2644 8.19291 41.9173 8.61232C41.5702 9.03172 41.1507 9.38605 40.659 9.6753L40.4638 8.24353ZM36.6457 6.9853C37.0941 6.9853 37.4773 6.92746 37.7955 6.81176C38.1137 6.69606 38.3523 6.52251 38.5114 6.29111C38.6849 6.05972 38.7717 5.7777 38.7717 5.44507C38.7717 4.95335 38.5837 4.57733 38.2077 4.317C37.8461 4.04222 37.3255 3.90483 36.6457 3.90483H34.3028V6.9853H36.6457Z" fill="black"/>
<path d="M56.0001 3.90483H48.8629V6.42127H55.5662V10.0658H48.8629V16.4871H44.7411V0.260322H56.0001V3.90483Z" fill="black"/>
</svg>
