<svg width="16" height="14" viewBox="0 0 16 14" fill="none" xmlns="http://www.w3.org/2000/svg">
<path d="M4.27103 14.0001C4.12619 14.0001 3.99061 13.9671 3.86427 13.9011C3.73811 13.8351 3.63977 13.7316 3.56927 13.5906L1.81151 10.4231H3.06927L3.99227 12.1923H6.00379V11.4231H4.45753L3.53452 9.65381H1.37676L0.105751 7.40379C0.072417 7.33329 0.046417 7.26604 0.0277502 7.20204C0.00925007 7.13788 0 7.07054 0 7.00004C0 6.95904 0.0352501 6.82446 0.105751 6.59629L1.37676 4.34627H3.53452L4.45753 2.57702H6.00379V1.80776H3.99227L3.06927 3.57702H1.81151L3.56927 0.409503C3.63977 0.268502 3.73811 0.165002 3.86427 0.0990011C3.99061 0.0330007 4.12619 0 4.27103 0H6.56154C6.79354 0 6.98612 0.0765838 7.13929 0.229751C7.29263 0.382919 7.36929 0.575587 7.36929 0.807755V4.42303H5.85003L5.08078 5.19228H7.36929V7.92305H5.40003L4.51528 6.17304H2.65752L1.88826 6.94229H4.05002L4.93453 8.6923H7.36929V13.1923C7.36929 13.4245 7.29263 13.6172 7.13929 13.7703C6.98612 13.9235 6.79354 14.0001 6.56154 14.0001H4.27103ZM9.75381 14.0001C9.33197 14.0001 8.97655 13.8555 8.68755 13.5663C8.39838 13.2773 8.2538 12.9219 8.2538 12.5001C8.2538 12.1681 8.34863 11.8787 8.5383 11.6318C8.72814 11.385 8.96664 11.2084 9.25381 11.1021V2.89802C8.96664 2.79168 8.72814 2.6151 8.5383 2.36826C8.34863 2.12143 8.2538 1.83201 8.2538 1.50001C8.2538 1.07817 8.39838 0.722754 8.68755 0.433752C8.97655 0.144584 9.33197 0 9.75381 0C10.1756 0 10.5311 0.144584 10.8201 0.433752C11.1092 0.722754 11.2538 1.07817 11.2538 1.50001C11.2538 1.83201 11.159 2.12143 10.9693 2.36826C10.7795 2.6151 10.541 2.79168 10.2538 2.89802V5.78853L12.7923 4.26153C12.6897 3.79752 12.7893 3.38469 13.0913 3.02302C13.3933 2.66152 13.7808 2.48076 14.2538 2.48076C14.6757 2.48076 15.0311 2.62535 15.3201 2.91452C15.6093 3.20352 15.7538 3.55894 15.7538 3.98077C15.7538 4.40261 15.6093 4.75803 15.3201 5.04703C15.0311 5.3362 14.6757 5.48078 14.2538 5.48078C14.0705 5.48078 13.9028 5.44712 13.7508 5.37978C13.599 5.31245 13.4545 5.22436 13.3173 5.11553L10.6383 6.74054L13.4711 8.99055C13.5877 8.91489 13.7108 8.85905 13.8403 8.82305C13.9698 8.78722 14.1077 8.7693 14.2538 8.7693C14.6757 8.7693 15.0311 8.91389 15.3201 9.20305C15.6093 9.49206 15.7538 9.84747 15.7538 10.2693C15.7538 10.6911 15.6093 11.0466 15.3201 11.3356C15.0311 11.6247 14.6757 11.7693 14.2538 11.7693C13.7268 11.7693 13.3188 11.5552 13.0298 11.1271C12.7407 10.6987 12.6762 10.2487 12.8366 9.77706L10.2538 7.70955V11.1271C10.541 11.2334 10.7753 11.4067 10.9568 11.6471C11.1381 11.8876 11.2288 12.1719 11.2288 12.5001C11.2288 12.9219 11.0884 13.2773 10.8076 13.5663C10.5269 13.8555 10.1756 14.0001 9.75381 14.0001Z" fill="#1C1B1F"/>
</svg>
