<svg width="15" height="15" viewBox="0 0 15 15" fill="none" xmlns="http://www.w3.org/2000/svg">
<path d="M4.39234 15C4.0149 15 3.69398 14.8677 3.42958 14.6032C3.16518 14.3388 3.03297 14.0179 3.03297 13.6404C3.03297 13.2629 3.16518 12.9419 3.42958 12.6775C3.69398 12.4131 4.0149 12.2809 4.39234 12.2809C4.7699 12.2809 5.09089 12.4131 5.35529 12.6775C5.61969 12.9419 5.75189 13.2629 5.75189 13.6404C5.75189 14.0179 5.61969 14.3388 5.35529 14.6032C5.09089 14.8677 4.7699 15 4.39234 15ZM11.9223 15C11.5448 15 11.2238 14.8677 10.9594 14.6032C10.695 14.3388 10.5628 14.0179 10.5628 13.6404C10.5628 13.2629 10.695 12.9419 10.9594 12.6775C11.2238 12.4131 11.5448 12.2809 11.9223 12.2809C12.2998 12.2809 12.6207 12.4131 12.8851 12.6775C13.1495 12.9419 13.2817 13.2629 13.2817 13.6404C13.2817 14.0179 13.1495 14.3388 12.8851 14.6032C12.6207 14.8677 12.2998 15 11.9223 15ZM2.94927 1.55378H13.736C14.0537 1.55378 14.294 1.68902 14.4567 1.95951C14.6196 2.22987 14.6274 2.50598 14.48 2.78787L11.9909 7.29673C11.8635 7.52087 11.695 7.69541 11.4853 7.82036C11.2756 7.94544 11.0457 8.00798 10.7958 8.00798H5.12747L4.22802 9.65129C4.18814 9.71111 4.18691 9.77585 4.22433 9.84551C4.26162 9.9153 4.31762 9.9502 4.39234 9.9502H13.2817V11.1155H4.39234C3.87441 11.1155 3.48525 10.8922 3.22487 10.4455C2.96435 9.99875 2.95516 9.55276 3.19729 9.10747L4.30571 7.11455L1.4792 1.16533H0V0H2.21122L2.94927 1.55378Z" fill="#1C1B1F"/>
</svg>
