<svg width="7" height="18" viewBox="0 0 7 18" fill="none" xmlns="http://www.w3.org/2000/svg">
<g clip-path="url(#clip0_1060_18378)">
<path d="M3.39749 3.14041C3.79322 3.14041 4.18894 3.14604 4.58467 3.13759C4.71487 3.13477 4.76461 3.1742 4.78655 3.29669C5.0411 4.70394 5.30004 6.10978 5.55825 7.51633C5.94154 9.60292 6.31606 11.6909 6.71617 13.774C6.80395 14.2323 6.72714 14.5941 6.40749 14.9546C5.63579 15.8226 4.89627 16.7166 4.14432 17.6008C3.69374 18.1309 3.07418 18.1337 2.62725 17.6078C1.82922 16.6694 1.03265 15.7296 0.23023 14.7948C0.0195664 14.5498 -0.0360253 14.2816 0.0210293 13.9746C0.456254 11.6177 0.888552 9.26008 1.32158 6.90317C1.54249 5.69866 1.76485 4.49416 1.98356 3.28895C2.00404 3.17561 2.05159 3.13618 2.17374 3.13829C2.5819 3.14604 2.98933 3.14111 3.39749 3.14111V3.14041Z" fill="black"/>
<path d="M6.13152 0C6.10226 0.06195 6.08031 0.114748 6.05325 0.165435C5.67654 0.866596 5.29691 1.56635 4.92532 2.26962C4.86534 2.38296 4.80097 2.42943 4.66346 2.42872C3.80544 2.42239 2.94816 2.4245 2.09015 2.42591C1.99506 2.42591 1.92264 2.42027 1.86998 2.31961C1.47571 1.57409 1.07414 0.832805 0.675487 0.0901091C0.66232 0.0654699 0.652811 0.0387188 0.636719 0H6.13225H6.13152Z" fill="black"/>
</g>
<defs>
<clipPath id="clip0_1060_18378">
<rect width="6.75" height="18" fill="white"/>
</clipPath>
</defs>
</svg>
