<svg width="15" height="13" viewBox="0 0 15 13" fill="none" xmlns="http://www.w3.org/2000/svg">
<path d="M1.3824 13C1.00221 13 0.676765 12.8646 0.406059 12.5939C0.135353 12.3232 0 11.9978 0 11.6176V9.41181H14.5294V11.6176C14.5294 11.9978 14.3941 12.3232 14.1234 12.5939C13.8526 12.8646 13.5272 13 13.147 13H1.3824ZM7.26471 7.30887C6.81073 7.30887 6.45609 7.43632 6.20081 7.69122C5.9454 7.94612 5.49021 8.07357 4.83524 8.07357C4.18039 8.07357 3.72922 7.94612 3.48171 7.69122C3.23407 7.43632 2.88332 7.30887 2.42947 7.30887C1.97549 7.30887 1.62079 7.43632 1.36538 7.69122C1.1101 7.94612 0.654971 8.07357 0 8.07357V6.92651C0.45398 6.92651 0.808677 6.79906 1.06409 6.54416C1.31937 6.28926 1.7745 6.16181 2.42947 6.16181C3.08431 6.16181 3.53555 6.28926 3.78319 6.54416C4.0307 6.79906 4.38138 6.92651 4.83524 6.92651C5.28922 6.92651 5.64391 6.79906 5.89932 6.54416C6.15474 6.28926 6.60986 6.16181 7.26471 6.16181C7.91955 6.16181 8.37468 6.28926 8.63009 6.54416C8.8855 6.79906 9.2402 6.92651 9.69418 6.92651C10.148 6.92651 10.4963 6.79906 10.739 6.54416C10.9816 6.28926 11.4304 6.16181 12.0852 6.16181C12.7402 6.16181 13.2056 6.28926 13.4816 6.54416C13.7575 6.79906 14.1068 6.92651 14.5294 6.92651V8.07357C13.8744 8.07357 13.4296 7.94612 13.1948 7.69122C12.96 7.43632 12.6157 7.30887 12.1617 7.30887C11.7078 7.30887 11.3468 7.43632 11.0787 7.69122C10.8105 7.94612 10.349 8.07357 9.69418 8.07357C9.03921 8.07357 8.58401 7.94612 8.3286 7.69122C8.07332 7.43632 7.71869 7.30887 7.26471 7.30887ZM0 4.82357V4.20588C0 2.87262 0.611765 1.83829 1.83529 1.1029C3.05882 0.367632 4.86863 0 7.26471 0C9.66078 0 11.4706 0.367632 12.6941 1.1029C13.9176 1.83829 14.5294 2.87262 14.5294 4.20588V4.82357H0Z" fill="#1C1B1F"/>
</svg>
