<svg width="16" height="17" viewBox="0 0 16 17" fill="none" xmlns="http://www.w3.org/2000/svg">
<path d="M0 14.8756V8.77278H6.10281V14.8756H0ZM2.66998 6.86566L6.86566 0L11.0613 6.86566H2.66998ZM14.9328 16.7446L12.9112 14.723C12.6443 14.901 12.355 15.0345 12.0435 15.1235C11.732 15.2125 11.4046 15.257 11.0613 15.257C10.1078 15.257 9.29724 14.9233 8.62975 14.2558C7.96225 13.5883 7.62851 12.7778 7.62851 11.8242C7.62851 10.8706 7.96225 10.0601 8.62975 9.3926C9.29724 8.72511 10.1078 8.39136 11.0613 8.39136C12.0149 8.39136 12.8254 8.72511 13.4929 9.3926C14.1604 10.0601 14.4942 10.8706 14.4942 11.8242C14.4942 12.1548 14.4497 12.4758 14.3607 12.7873C14.2717 13.0988 14.1445 13.388 13.9792 13.655L16.0008 15.6766L14.9328 16.7446ZM11.0613 13.7313C11.5953 13.7313 12.0467 13.547 12.4154 13.1782C12.7841 12.8095 12.9685 12.3582 12.9685 11.8242C12.9685 11.2902 12.7841 10.8388 12.4154 10.4701C12.0467 10.1014 11.5953 9.91706 11.0613 9.91706C10.5273 9.91706 10.076 10.1014 9.70728 10.4701C9.33857 10.8388 9.15421 11.2902 9.15421 11.8242C9.15421 12.3582 9.33857 12.8095 9.70728 13.1782C10.076 13.547 10.5273 13.7313 11.0613 13.7313Z" fill="black"/>
</svg>
