<svg width="56" height="17" viewBox="0 0 56 17" fill="none" xmlns="http://www.w3.org/2000/svg">
<path d="M6.93432 16.4717C5.72526 16.4717 4.59443 16.2156 3.54184 15.7036C2.50347 15.1773 1.65712 14.4376 1.00281 13.4846C0.362718 12.5173 0.0284485 11.415 0 10.1775H4.18193C4.23883 10.6895 4.40241 11.1447 4.67267 11.543C4.95715 11.927 5.31987 12.2329 5.76082 12.4604C6.20177 12.6738 6.69251 12.7805 7.23303 12.7805C7.56019 12.7805 7.86601 12.7236 8.15049 12.6098C8.4492 12.496 8.69102 12.3395 8.87593 12.1404C9.06085 11.9413 9.15331 11.7208 9.15331 11.479C9.15331 11.0949 9.02529 10.7962 8.76925 10.5828C8.51321 10.3553 8.18606 10.1917 7.78778 10.0921C7.3895 9.99254 6.83475 9.88585 6.12354 9.77206C4.97137 9.58714 4.02546 9.36667 3.2858 9.11063C2.56036 8.8546 1.92739 8.39231 1.38686 7.72377C0.860567 7.05523 0.597418 6.09509 0.597418 4.84336C0.597418 3.91878 0.867679 3.08666 1.4082 2.347C1.94872 1.60734 2.6955 1.03126 3.64852 0.618756C4.61577 0.206252 5.69681 0 6.89165 0C8.07226 0 9.15331 0.248925 10.1348 0.746774C11.1163 1.2304 11.9128 1.89183 12.5245 2.73106C13.1503 3.55606 13.513 4.46641 13.6126 5.46211H9.28132C9.2102 5.10651 9.04662 4.78646 8.79059 4.50198C8.54877 4.21749 8.22162 3.9899 7.80911 3.81921C7.41083 3.64852 6.96277 3.56317 6.46492 3.56317C5.95285 3.56317 5.53323 3.66274 5.20608 3.86188C4.89314 4.0468 4.73668 4.29572 4.73668 4.60866C4.73668 4.89314 4.85047 5.12073 5.07806 5.29142C5.30565 5.46211 5.59724 5.59013 5.95285 5.67548C6.30845 5.76082 6.79919 5.84617 7.42506 5.93151C8.60567 6.11643 9.58714 6.34402 10.3695 6.61428C11.1518 6.87031 11.8346 7.36105 12.4178 8.08649C13.001 8.7977 13.2926 9.82896 13.2926 11.1803C13.2926 12.2186 13.0223 13.1432 12.4818 13.954C11.9555 14.7505 11.2087 15.3693 10.2415 15.8103C9.28844 16.2512 8.18606 16.4717 6.93432 16.4717Z" fill="black"/>
<path d="M20.181 16.2156C19.0716 16.2156 18.0901 15.9667 17.2366 15.4689C16.3974 14.9568 15.7431 14.2456 15.2737 13.3352C14.8043 12.4249 14.5696 11.3794 14.5696 10.1988V0.256037H18.6235V10.1988C18.6235 10.6824 18.7231 11.1091 18.9222 11.479C19.1356 11.8488 19.4272 12.1333 19.797 12.3324C20.1668 12.5316 20.5793 12.6311 21.0345 12.6311H21.3759C22.0871 12.6311 22.6703 12.4107 23.1255 11.9697C23.5806 11.5288 23.8082 10.9384 23.8082 10.1988V0.256037H27.8621V10.1988C27.8621 11.3794 27.6274 12.4249 27.158 13.3352C26.6886 14.2456 26.0272 14.9568 25.1738 15.4689C24.3203 15.9667 23.3388 16.2156 22.2293 16.2156H20.181Z" fill="black"/>
<path d="M39.7977 8.10782C40.324 8.34963 40.772 8.64834 41.1419 9.00395C41.5117 9.35956 41.7962 9.75784 41.9953 10.1988C42.1945 10.6255 42.294 11.0878 42.294 11.5857V16.2156H38.2401V12.6311C38.2401 12.0195 38.0552 11.5074 37.6854 11.0949C37.3155 10.6682 36.839 10.4548 36.2558 10.4548H33.7381V16.2156H29.6842V0.256037H36.1705C37.4222 0.256037 38.5033 0.462288 39.4136 0.874791C40.3382 1.28729 41.0494 1.8776 41.5473 2.64571C42.0451 3.41382 42.294 4.31706 42.294 5.35543C42.294 5.96707 42.2016 6.53604 42.0167 7.06234C41.8317 7.58864 41.5686 8.05804 41.2272 8.47054C40.8858 8.88304 40.4733 9.23154 39.9897 9.51602L39.7977 8.10782ZM36.0425 6.87031C36.4834 6.87031 36.8604 6.81342 37.1733 6.69962C37.4862 6.58583 37.7209 6.41514 37.8774 6.18755C38.0481 5.95996 38.1334 5.68259 38.1334 5.35543C38.1334 4.87181 37.9485 4.50197 37.5787 4.24594C37.2231 3.97568 36.711 3.84055 36.0425 3.84055H33.7381V6.87031H36.0425Z" fill="black"/>
<path d="M55.0782 3.84055H48.0585V6.31557H54.6515V9.90008H48.0585V16.2156H44.0046V0.256037H55.0782V3.84055Z" fill="black"/>
</svg>
